<?xml version="1.0" encoding="utf-8"?>
<!-- Generator: Adobe Illustrator 21.1.0, SVG Export Plug-In . SVG Version: 6.00 Build 0)  -->
<svg version="1.1" id="Ebene_1" xmlns="http://www.w3.org/2000/svg" xmlns:xlink="http://www.w3.org/1999/xlink" x="0px" y="0px"
	 viewBox="0 0 417.5 318.9" style="enable-background:new 0 0 417.5 318.9;" xml:space="preserve">
<style type="text/css">
	.st0{fill:#1D1D1B;}
	.st1{fill:none;}
	.st2{fill:#FFFFFF;}
</style>
<path class="st0" d="M235.8,146.3"/>
<path class="st1" d="M53.2,665"/>
<path class="st1" d="M258.7,226.6"/>
<path class="st1" d="M235.6,145.7"/>
<path class="st1" d="M235.3,138.6"/>
<path class="st2" d="M407.8,13.7L407.8,13.7L417.5,2l-2.3-2l-12.3,14.8l-14,5c-83.5,35.7-77.1,63.9-66.1,76.1
	c29.8,32.7-31.3,67.9-31.3,67.9V36.3h-3l0,26.5c-2-5.3-12-24-64.7-26.5c-36-1.8-50.9,21-51.6,45.8c-12,3.5-25.4,3.5-32.5-7.2
	c-0.4-0.6-0.4-1.4,0-2.1l6.4-9.2l2.2-3.1l2.6-3.8l13.3-18.7l0,0l-2.5-1.7l-2.5,3.5L135.6,73c-2.3,3.2-5.4,5.9-9,7.5
	c-3.8,1.6-6.6,1.7-6.6,1.7c-10.8,0.4-23.5,2.4-34.1,4.5c-17.3,3.3-33.2,11.9-44.9,25.1C13.3,142.8-1.4,188.6,0.1,226
	c1.9,46.9,31.8,71.5,60.8,76.8l5.3,0.8c2.2,0.2,4.4,0.3,6.6,0.3c8.5,0,16.6-1.7,23.4-5.1c18.3-8.9,33.8-22.6,45.6-39.1
	c4.6-6.5,10.5-15.8,19.3-28.6l2.1-3c0.7-1,1.4-2.1,2.2-3.2l2.3-3.3c4.8-6.9,9-12.9,12.4-17.9c21.4,9.7,35-8.5,35-8.5
	c6.6-7.5,11.2-15.1,14-21.2h12.5l-0.1,56.2c-23.2-17-40-14.7-52.5-7.6c-12.1,6.9-19.8,19.3-20.6,33.2c-1.2,21,14,27.6,22.3,27.5
	c21.8-0.2,36-11.3,36.3-11.7c5.6,4.1,7.4,5.3,14.3,7.9c6.5,2.4,18.5,2.3,28.9-0.5c33.8-9,41.4-31.9,41.4-31.9s10.6-25.4,16.8-34.2
	c0.8-1.2,1.6-2.4,2.3-3.6l8.1-11.6l0,0.5c1,20.4,3,63.5,3.5,79.1c0.7,20.7,11.5,24.3,20.6,30l-8,9.7l2.3,1.9l47.2-56.8l-2.3-2
	l-2.9,3.4c-2.8,2.6-32,29.2-21.9-24.9c12.8-68.9-33.6-87.8-33.6-87.8s31.3-25.3,41.5-44.5c7.6-14.2-1.8-32.3-7.1-40.7
	c-2.9-4.6-3.8-11.3-1.6-15.4C378.9,46.1,377.8,51.6,407.8,13.7z M185.9,265.9c0-0.1,0-0.2-0.1-0.3c-0.1-0.5-0.1-1-0.1-1.6
	c0.7-9.5,34.6,2.5,34.6,2.5C214.4,269.1,188.3,278.7,185.9,265.9z M44.2,260.4c-11.8-30.4-7.5-74,0-109.6V260.4z M101.4,238.2
	c-0.7,9.4-10,33.8-10,33.8c-21.2,3.5-37.8,7.1-41.9-0.9l0.5,1c-0.7-1.1-1.4-2.2-2-3.4V134.3c0.1-0.4,0.2-0.7,0.3-1.1
	c7-27.5,28.8-38.1,47.5-42l27.6-1.3L90.9,136c-6.7,9.5-12.4,49.5-3.8,69.1S102.2,228.7,101.4,238.2z M141,247.7
	c-0.4,0.4-0.8,0.9-1.2,1.3c-2.5,2.5-5.4,4.9-7.6,6.5c0,0,0,0-0.1,0c-3.1,2.1-7.3,4.3-7.8,4.6c0,0-0.1,0-0.1,0v0
	c-5.6,2.6-16.1,7.1-27.5,11c2.9-3.7,5.7-7.5,8.4-11.3c7.1-10.3,16.5-21.2,19.2-25c6.9-9.6,24.9-44.7,4.1-68.3l49,35.5
	C165.3,219.2,153.5,234.2,141,247.7z M182.2,195.2c-0.7,0.9-1.3,1.9-1.9,2.7c-3.8-1.2-7.5-3-10.7-5.4l-12.5-9.1l-36.9-26.6
	c-4.8-11.4-20.3-31-10.3-41.7c2.1,1.7,47.6,20.3,69.4,0.1c2.5,5.1,5.5,9.8,9.1,13.7c10.5,11.6,15,23.4,16.6,33.4l-0.2,0.3L199,171
	l0,0l-9.5,13.7l-0.3,0.4l-6.9,9.9L182.2,195.2z M205.8,174c-0.4,8-2.3,13.8-2.3,13.8c-4,10.3-10.9,12.3-18.5,11.1
	c-0.2,0-1.1-0.3-1.3-0.3c2.3-3.4,4.2-6.3,5.9-8.8v0l10.9-15.7l0.1-0.1l2.2-3.1l2.6-3.8l0.2-0.3c0,0.1,0,0.2,0,0.3
	c0.1,1.3,0.2,2.6,0.2,3.8L205.8,174z M241.7,170.9h-11.1c5.9-16.2,0.6-26.9-1.6-32.5c-6-15.5-27.6-36.5-23.1-66.4
	c0.4-2.6,0.9-5.2,1.7-7.9c1.7-6,4-10.2,6.6-13.2c8.7-10.1,20.4-5.5,24.4-1.5c3.3,3.2,3.1,3.4,3.1,5.7L241.7,170.9z M338.7,193.2
	L338.7,193.2l-1,1.5l-10.3,14.7c-0.4,0.6-0.7,1.2-1.2,1.8c-5.3,7.3-12,14.9-18.9,20.4c-28.2,22.4-42.2-1.1-42.2-1.1l23.1-28.9
	l0.2,28.7h1.5l1.5,0c0,0-0.3-56.2-0.1-56.2c38.6,0,46.7,3.3,47,13.2L338.7,193.2L338.7,193.2z"/>
<path class="st1" d="M87.1,147.9"/>
</svg>
